# Blender v3.1.2 OBJ File: 'tetris.blend'
# www.blender.org
mtllib tetris.mtl
o bar_Cube
v -1.000000 -1.000000 11.143402
v -1.000000 1.000000 11.143402
v -1.000000 -1.000000 9.143402
v -1.000000 1.000000 9.143402
v 1.000000 -1.000000 11.143402
v 1.000000 1.000000 11.143402
v 1.000000 -1.000000 9.143402
v 1.000000 1.000000 9.143402
v -1.000000 -1.000000 11.143402
v -1.000000 1.000000 11.143402
v 1.000000 1.000000 11.143402
v 1.000000 -1.000000 11.143402
v -1.000000 -1.000000 13.143402
v -1.000000 1.000000 13.143402
v 1.000000 1.000000 13.143402
v 1.000000 -1.000000 13.143402
v -1.000000 -1.000000 15.143402
v -1.000000 1.000000 15.143402
v 1.000000 1.000000 15.143402
v 1.000000 -1.000000 15.143402
v -1.000000 -1.000000 17.143402
v -1.000000 1.000000 17.143402
v 1.000000 1.000000 17.143402
v 1.000000 -1.000000 17.143402
vt 0.375000 0.000000
vt 0.625000 0.000000
vt 0.625000 0.250000
vt 0.375000 0.250000
vt 0.625000 0.500000
vt 0.375000 0.500000
vt 0.625000 0.750000
vt 0.375000 0.750000
vt 0.625000 0.750000
vt 0.375000 0.750000
vt 0.125000 0.500000
vt 0.125000 0.750000
vt 0.875000 0.500000
vt 0.875000 0.750000
vt 0.125000 0.750000
vt 0.375000 0.750000
vt 0.125000 0.750000
vt 0.375000 0.000000
vt 0.625000 0.000000
vt 0.875000 0.750000
vt 0.625000 0.000000
vt 0.375000 0.000000
vt 0.375000 0.000000
vt 0.625000 0.000000
vt 0.875000 0.750000
vt 0.625000 0.750000
vt 0.625000 0.750000
vt 0.875000 0.750000
vt 0.875000 0.750000
vt 0.625000 0.750000
vt 0.375000 0.750000
vt 0.125000 0.750000
vt 0.375000 0.750000
vt 0.625000 1.000000
vt 0.375000 1.000000
vt 0.125000 0.750000
vt 0.375000 0.000000
vt 0.625000 0.000000
vn -1.0000 0.0000 0.0000
vn 0.0000 0.0000 -1.0000
vn 1.0000 0.0000 0.0000
vn 0.0000 0.0000 1.0000
vn 0.0000 -1.0000 0.0000
vn 0.0000 1.0000 0.0000
usemtl Material
s off
f 1/1/1 2/2/1 4/3/1 3/4/1
f 3/4/2 4/3/2 8/5/2 7/6/2
f 7/6/3 8/5/3 6/7/3 5/8/3
f 5/8/4 6/7/4 11/9/4 12/10/4
f 3/11/5 7/6/5 5/8/5 1/12/5
f 8/5/6 4/13/6 2/14/6 6/7/6
f 9/15/5 12/10/5 16/16/5 13/17/5
f 2/2/4 1/1/4 9/18/4 10/19/4
f 1/12/4 5/8/4 12/10/4 9/15/4
f 6/7/4 2/14/4 10/20/4 11/9/4
f 14/21/1 13/22/1 17/23/1 18/24/1
f 10/19/1 9/18/1 13/22/1 14/21/1
f 11/9/6 10/20/6 14/25/6 15/26/6
f 12/10/3 11/9/3 15/26/3 16/16/3
f 19/27/6 18/28/6 22/29/6 23/30/6
f 15/26/6 14/25/6 18/28/6 19/27/6
f 16/16/3 15/26/3 19/27/3 20/31/3
f 13/17/5 16/16/5 20/31/5 17/32/5
f 24/33/4 23/30/4 22/34/4 21/35/4
f 20/31/3 19/27/3 23/30/3 24/33/3
f 17/32/5 20/31/5 24/33/5 21/36/5
f 18/24/1 17/23/1 21/37/1 22/38/1
o LShape_Cube.001
v -1.000000 -1.000000 -13.975144
v -1.000000 1.000000 -13.975144
v -1.000000 -1.000000 -15.975144
v -1.000000 1.000000 -15.975144
v 1.000000 -1.000000 -13.975144
v 1.000000 1.000000 -13.975144
v 1.000000 -1.000000 -15.975144
v 1.000000 1.000000 -15.975144
v -1.000000 3.000000 -13.975144
v -1.000000 3.000000 -15.975144
v 1.000000 3.000000 -15.975144
v 1.000000 3.000000 -13.975144
v -1.000000 5.000000 -13.975144
v -1.000000 5.000000 -15.975144
v 1.000000 5.000000 -15.975144
v 1.000000 5.000000 -13.975144
v -1.000000 -1.000000 -11.975144
v -1.000000 1.000000 -11.975144
v 1.000000 1.000000 -11.975144
v 1.000000 -1.000000 -11.975144
vt 0.375000 0.000000
vt 0.625000 0.000000
vt 0.625000 0.250000
vt 0.375000 0.250000
vt 0.625000 0.500000
vt 0.375000 0.500000
vt 0.625000 0.750000
vt 0.375000 0.750000
vt 0.375000 0.000000
vt 0.625000 0.000000
vt 0.125000 0.500000
vt 0.125000 0.750000
vt 0.625000 0.250000
vt 0.625000 0.500000
vt 0.625000 0.750000
vt 0.625000 0.500000
vt 0.625000 0.750000
vt 0.625000 0.000000
vt 0.625000 1.000000
vt 0.625000 1.000000
vt 0.875000 0.500000
vt 0.875000 0.750000
vt 0.625000 0.000000
vt 0.625000 0.250000
vt 0.625000 1.000000
vt 0.375000 0.750000
vt 0.625000 0.750000
vt 0.625000 1.000000
vt 0.375000 1.000000
vt 0.125000 0.750000
vn -1.0000 0.0000 0.0000
vn 0.0000 0.0000 -1.0000
vn 1.0000 0.0000 0.0000
vn 0.0000 -1.0000 0.0000
vn 0.0000 0.0000 1.0000
vn 0.0000 1.0000 0.0000
usemtl Material.001
s off
f 25/39/7 26/40/7 28/41/7 27/42/7
f 27/42/8 28/41/8 32/43/8 31/44/8
f 31/44/9 32/43/9 30/45/9 29/46/9
f 26/40/7 25/39/7 41/47/7 42/48/7
f 27/49/10 31/44/10 29/46/10 25/50/10
f 32/43/8 28/41/8 34/51/8 35/52/8
f 36/53/9 35/52/9 39/54/9 40/55/9
f 30/45/9 32/43/9 35/52/9 36/53/9
f 28/41/7 26/40/7 33/56/7 34/51/7
f 26/57/11 30/45/11 36/53/11 33/58/11
f 39/54/12 38/59/12 37/60/12 40/55/12
f 34/51/7 33/56/7 37/61/7 38/62/7
f 33/58/11 36/53/11 40/55/11 37/63/11
f 35/52/8 34/51/8 38/62/8 39/54/8
f 44/64/11 43/65/11 42/66/11 41/67/11
f 25/50/10 29/46/10 44/64/10 41/68/10
f 30/45/12 26/57/12 42/66/12 43/65/12
f 29/46/9 30/45/9 43/65/9 44/64/9
o stairs_Cube.002
v 11.641683 -1.000000 1.000000
v 11.641683 1.000000 1.000000
v 11.641683 -1.000000 -1.000000
v 11.641683 1.000000 -1.000000
v 13.641683 -1.000000 1.000000
v 13.641683 1.000000 1.000000
v 13.641683 -1.000000 -1.000000
v 13.641683 1.000000 -1.000000
v 11.641683 3.000000 1.000000
v 11.641683 3.000000 -1.000000
v 13.641683 3.000000 -1.000000
v 13.641683 3.000000 1.000000
v 11.641683 -1.000000 3.000000
v 11.641683 1.000000 3.000000
v 13.641683 1.000000 3.000000
v 13.641683 -1.000000 3.000000
v 11.641683 -3.000000 1.000000
v 13.641683 -3.000000 1.000000
v 11.641683 -3.000000 3.000000
v 13.641683 -3.000000 3.000000
vt 0.375000 0.000000
vt 0.625000 0.000000
vt 0.625000 0.250000
vt 0.375000 0.250000
vt 0.625000 0.500000
vt 0.375000 0.500000
vt 0.625000 0.750000
vt 0.375000 0.750000
vt 0.625000 0.750000
vt 0.375000 0.750000
vt 0.125000 0.500000
vt 0.125000 0.750000
vt 0.625000 0.250000
vt 0.625000 0.500000
vt 0.875000 0.500000
vt 0.875000 0.750000
vt 0.625000 0.750000
vt 0.625000 0.000000
vt 0.625000 1.000000
vt 0.625000 1.000000
vt 0.625000 1.000000
vt 0.375000 1.000000
vt 0.375000 0.000000
vt 0.625000 0.000000
vt 0.375000 0.750000
vt 0.375000 0.750000
vt 0.125000 0.750000
vt 0.125000 0.750000
vt 0.375000 0.000000
vt 0.375000 0.000000
vt 0.375000 1.000000
vn -1.0000 0.0000 0.0000
vn 0.0000 0.0000 -1.0000
vn 1.0000 0.0000 0.0000
vn 0.0000 -1.0000 0.0000
vn 0.0000 1.0000 0.0000
vn 0.0000 0.0000 1.0000
usemtl Material.002
s off
f 45/69/13 46/70/13 48/71/13 47/72/13
f 47/72/14 48/71/14 52/73/14 51/74/14
f 51/74/15 52/73/15 50/75/15 49/76/15
f 49/76/15 50/75/15 59/77/15 60/78/15
f 47/79/16 51/74/16 49/76/16 45/80/16
f 52/73/14 48/71/14 54/81/14 55/82/14
f 55/82/17 54/83/17 53/84/17 56/85/17
f 50/75/15 52/73/15 55/82/15 56/85/15
f 48/71/13 46/70/13 53/86/13 54/81/13
f 46/87/18 50/75/18 56/85/18 53/88/18
f 60/78/18 59/77/18 58/89/18 57/90/18
f 46/70/13 45/69/13 57/91/13 58/92/13
f 49/76/15 60/78/15 64/93/15 62/94/15
f 50/75/17 46/87/17 58/89/17 59/77/17
f 61/95/16 62/94/16 64/93/16 63/96/16
f 45/80/14 49/76/14 62/94/14 61/95/14
f 57/91/13 45/69/13 61/97/13 63/98/13
f 60/78/18 57/90/18 63/99/18 64/93/18
o TShape_Cube.003
v -11.400359 -1.000000 1.000000
v -11.400359 1.000000 1.000000
v -11.400359 -1.000000 -1.000000
v -11.400359 1.000000 -1.000000
v -9.400359 -1.000000 1.000000
v -9.400359 1.000000 1.000000
v -9.400359 -1.000000 -1.000000
v -9.400359 1.000000 -1.000000
v -11.400359 3.000000 1.000000
v -11.400359 3.000000 -1.000000
v -9.400359 3.000000 -1.000000
v -9.400359 3.000000 1.000000
v -9.400359 1.000000 3.000000
v -11.400359 1.000000 3.000000
v -9.400359 3.000000 3.000000
v -11.400359 3.000000 3.000000
v -11.400359 1.000000 -3.000000
v -9.400359 1.000000 -3.000000
v -11.400359 3.000000 -3.000000
v -9.400359 3.000000 -3.000000
vt 0.375000 0.000000
vt 0.625000 0.000000
vt 0.625000 0.250000
vt 0.375000 0.250000
vt 0.625000 0.500000
vt 0.375000 0.500000
vt 0.625000 0.750000
vt 0.375000 0.750000
vt 0.625000 1.000000
vt 0.375000 1.000000
vt 0.125000 0.500000
vt 0.125000 0.750000
vt 0.625000 0.500000
vt 0.625000 0.750000
vt 0.875000 0.500000
vt 0.875000 0.750000
vt 0.625000 0.000000
vt 0.625000 0.250000
vt 0.625000 0.750000
vt 0.625000 0.750000
vt 0.625000 0.250000
vt 0.625000 0.250000
vt 0.625000 1.000000
vt 0.625000 1.000000
vt 0.875000 0.750000
vt 0.625000 0.000000
vt 0.625000 0.000000
vt 0.625000 0.500000
vt 0.625000 0.500000
vt 0.875000 0.500000
vn -1.0000 0.0000 0.0000
vn 0.0000 0.0000 -1.0000
vn 1.0000 0.0000 0.0000
vn 0.0000 0.0000 1.0000
vn 0.0000 -1.0000 0.0000
vn 0.0000 1.0000 0.0000
usemtl Material.003
s off
f 65/100/19 66/101/19 68/102/19 67/103/19
f 67/103/20 68/102/20 72/104/20 71/105/20
f 71/105/21 72/104/21 70/106/21 69/107/21
f 69/107/22 70/106/22 66/108/22 65/109/22
f 67/110/23 71/105/23 69/107/23 65/111/23
f 70/106/21 72/104/21 75/112/21 76/113/21
f 75/112/24 74/114/24 73/115/24 76/113/24
f 68/102/19 66/101/19 73/116/19 74/117/19
f 70/106/21 76/113/21 79/118/21 77/119/21
f 68/102/19 74/117/19 83/120/19 81/121/19
f 78/122/22 77/119/22 79/118/22 80/123/22
f 76/113/24 73/115/24 80/124/24 79/118/24
f 66/108/23 70/106/23 77/119/23 78/122/23
f 73/116/19 66/101/19 78/125/19 80/126/19
f 82/127/20 81/121/20 83/120/20 84/128/20
f 74/114/24 75/112/24 84/128/24 83/129/24
f 72/104/23 68/102/23 81/121/23 82/127/23
f 75/112/21 72/104/21 82/127/21 84/128/21
o square_Cube.004
v -1.000000 -1.000000 1.000000
v -1.000000 1.000000 1.000000
v -1.000000 -1.000000 -1.000000
v -1.000000 1.000000 -1.000000
v 1.000000 -1.000000 1.000000
v 1.000000 1.000000 1.000000
v 1.000000 -1.000000 -1.000000
v 1.000000 1.000000 -1.000000
v -1.000000 3.000000 1.000000
v -1.000000 3.000000 -1.000000
v 1.000000 3.000000 -1.000000
v 1.000000 3.000000 1.000000
v 1.000000 1.000000 3.000000
v -1.000000 1.000000 3.000000
v 1.000000 3.000000 3.000000
v -1.000000 3.000000 3.000000
v 1.000000 -1.000000 1.000000
v -1.000000 -1.000000 1.000000
v 1.000000 -1.000000 3.000000
v -1.000000 -1.000000 3.000000
vt 0.375000 0.000000
vt 0.625000 0.000000
vt 0.625000 0.250000
vt 0.375000 0.250000
vt 0.625000 0.500000
vt 0.375000 0.500000
vt 0.625000 0.750000
vt 0.375000 0.750000
vt 0.625000 1.000000
vt 0.375000 1.000000
vt 0.125000 0.500000
vt 0.125000 0.750000
vt 0.625000 0.250000
vt 0.625000 0.500000
vt 0.875000 0.500000
vt 0.875000 0.750000
vt 0.625000 0.750000
vt 0.625000 0.000000
vt 0.625000 0.000000
vt 0.625000 0.000000
vt 0.625000 1.000000
vt 0.625000 0.750000
vt 0.625000 0.750000
vt 0.625000 1.000000
vt 0.875000 0.750000
vt 0.625000 0.750000
vt 0.625000 0.750000
vt 0.625000 1.000000
vt 0.625000 1.000000
vt 0.625000 0.000000
vt 0.625000 0.000000
vn -1.0000 0.0000 0.0000
vn 0.0000 0.0000 -1.0000
vn 1.0000 0.0000 0.0000
vn 0.0000 0.0000 1.0000
vn 0.0000 -1.0000 0.0000
vn 0.0000 1.0000 0.0000
usemtl Material.004
s off
f 85/130/25 86/131/25 88/132/25 87/133/25
f 87/133/26 88/132/26 92/134/26 91/135/26
f 91/135/27 92/134/27 90/136/27 89/137/27
f 89/137/28 90/136/28 86/138/28 85/139/28
f 87/140/29 91/135/29 89/137/29 85/141/29
f 92/134/26 88/132/26 94/142/26 95/143/26
f 95/143/30 94/144/30 93/145/30 96/146/30
f 90/136/27 92/134/27 95/143/27 96/146/27
f 88/132/25 86/131/25 93/147/25 94/142/25
f 93/147/25 86/131/25 98/148/25 100/149/25
f 98/150/28 97/151/28 99/152/28 100/153/28
f 96/146/30 93/145/30 100/154/30 99/152/30
f 90/136/27 97/151/27 103/155/27 101/156/27
f 90/136/27 96/146/27 99/152/27 97/151/27
f 102/157/29 101/156/29 103/155/29 104/158/29
f 98/148/25 86/131/25 102/159/25 104/160/25
f 86/138/26 90/136/26 101/156/26 102/157/26
f 97/151/28 98/150/28 104/158/28 103/155/28
